<svg aria-hidden="true" style="position: absolute; width: 0; height: 0; overflow: hidden;" version="1.1" xmlns="http://www.w3.org/2000/svg" xmlns:xlink="http://www.w3.org/1999/xlink">
<defs>
<symbol id="icon-btn-play" viewBox="0 0 32 32">
<path fill="#e9ecf0" style="fill: var(--color1, #e9ecf0)" opacity="0.6" d="M16 32c8.837 0 16-7.163 16-16s-7.163-16-16-16c-8.837 0-16 7.163-16 16s7.163 16 16 16zM20.261 16.735c0.704-0.352 0.704-1.357 0-1.709l-6.222-3.111c-0.635-0.318-1.382 0.144-1.382 0.854v6.222c0 0.71 0.747 1.172 1.382 0.854l6.222-3.111z"></path>
</symbol>
<symbol id="icon-1" viewBox="0 0 32 32">
<path fill="#efbd0d" style="fill: var(--color1, #efbd0d)" opacity="0.1" d="M25.571 1.974v21.788c0 1.085-0.866 1.974-1.924 1.974h-21.722c-1.058 0-1.924-0.888-1.924-1.974v-21.788c0-1.085 0.866-1.974 1.924-1.974h21.722c1.058 0 1.924 0.888 1.924 1.974z"></path>
<path fill="#ffd84e" style="fill: var(--color2, #ffd84e)" d="M3.863 6.922c0-1.816 1.437-3.289 3.207-3.289h21.722c1.77 0 3.207 1.474 3.207 3.289v21.788c0 1.816-1.437 3.289-3.207 3.289h-21.722c-1.77 0-3.207-1.474-3.207-3.289v-21.788zM30.717 28.711v-21.788c0-1.085-0.866-1.974-1.924-1.974h-21.722c-1.058 0-1.924 0.888-1.924 1.974v21.788c0 1.086 0.866 1.974 1.924 1.974h21.722c1.058 0 1.924-0.888 1.924-1.974z"></path>
<path fill="#ffd84e" style="fill: var(--color2, #ffd84e)" d="M22.855 24.091c-0.735-0.099-1.419-0.44-1.949-0.971l-5.183-5.314c-0.38-0.39-0.896-0.61-1.434-0.61h-0.568c-0.187 0-0.338-0.155-0.338-0.347v-0.694c0-0.192 0.151-0.347 0.338-0.347h0.568c0.898-0.002 1.759 0.363 2.395 1.013l2.111 2.171 2.111-2.171c0.53-0.531 1.214-0.872 1.949-0.971v-1.429c-0.001-0.14 0.081-0.267 0.206-0.321s0.271-0.026 0.369 0.072l2.030 2.081c0.13 0.137 0.13 0.355 0 0.493l-2.030 2.081c-0.097 0.097-0.241 0.126-0.366 0.073s-0.208-0.177-0.209-0.316v-1.332c-0.374 0.086-0.716 0.278-0.988 0.555l-2.118 2.164 2.118 2.164c0.272 0.277 0.614 0.469 0.988 0.555v-1.332c-0.001-0.14 0.081-0.267 0.206-0.321s0.271-0.026 0.369 0.072l2.030 2.081c0.13 0.137 0.13 0.355 0 0.493l-2.030 2.081c-0.097 0.097-0.241 0.126-0.366 0.073s-0.208-0.177-0.209-0.316v-1.429zM16.684 23.12l1.279-1.318-0.954-0.978-1.286 1.311c-0.38 0.39-0.896 0.61-1.434 0.61h-0.568c-0.187 0-0.338 0.155-0.338 0.347v0.694c0 0.192 0.151 0.347 0.338 0.347h0.568c0.898 0.002 1.759-0.363 2.395-1.013z"></path>
</symbol>
<symbol id="icon-2" viewBox="0 0 32 32">
<path fill="#fb6363" style="fill: var(--color4, #fb6363)" opacity="0.1" d="M25.571 1.974v21.788c0 1.085-0.866 1.974-1.924 1.974h-21.722c-1.058 0-1.924-0.888-1.924-1.974v-21.788c0-1.085 0.866-1.974 1.924-1.974h21.722c1.058 0 1.924 0.888 1.924 1.974z"></path>
<path fill="#fb6363" style="fill: var(--color4, #fb6363)" d="M3.863 6.922c0-1.816 1.437-3.289 3.207-3.289h21.722c1.77 0 3.207 1.474 3.207 3.289v21.788c0 1.816-1.437 3.289-3.207 3.289h-21.722c-1.77 0-3.207-1.474-3.207-3.289v-21.788zM30.717 28.711v-21.788c0-1.085-0.866-1.974-1.924-1.974h-21.722c-1.058 0-1.924 0.888-1.924 1.974v21.788c0 1.086 0.866 1.974 1.924 1.974h21.722c1.058 0 1.924-0.888 1.924-1.974z"></path>
<path fill="#fb6363" style="fill: var(--color4, #fb6363)" d="M26.759 18.29c0-0.712-0.576-1.289-1.287-1.289h-2.285c0.229-0.391 0.351-0.836 0.354-1.289h1.931c0-0.712-0.576-1.289-1.287-1.289h-0.998c-0.462-0.789-1.307-1.273-2.221-1.273s-1.758 0.485-2.221 1.273h-1.641c-1.066 0-1.931 0.866-1.931 1.933v8.378c0 0.712 0.576 1.289 1.287 1.289h9.012c0.711 0 1.287-0.577 1.287-1.289v-6.445zM20.965 14.423c0.711 0 1.287 0.577 1.287 1.289s-0.576 1.289-1.287 1.289c-0.711 0-1.287-0.577-1.287-1.289s0.576-1.289 1.287-1.289zM17.103 15.712c-0.355 0-0.644 0.289-0.644 0.644s0.288 0.644 0.644 0.644h1.641c-0.229-0.391-0.351-0.836-0.354-1.289h-1.287zM25.471 23.445h-4.506c-0.355 0-0.644-0.289-0.644-0.644v-2.578c0-0.356 0.288-0.644 0.644-0.644h4.506v3.867zM21.931 22.156c-0.178 0-0.322-0.144-0.322-0.322v-0.644c0-0.178 0.144-0.322 0.322-0.322h0.644c0.178 0 0.322 0.144 0.322 0.322v0.644c0 0.178-0.144 0.322-0.322 0.322h-0.644z"></path>
</symbol>
<symbol id="icon-3" viewBox="0 0 32 32">
<path fill="#a66df5" style="fill: var(--color5, #a66df5)" opacity="0.1" d="M25.352 2.135v21.602c0 1.076-0.859 1.957-1.908 1.957h-21.537c-1.049 0-1.908-0.881-1.908-1.957v-21.602c0-1.076 0.859-1.957 1.908-1.957h21.537c1.049 0 1.908 0.881 1.908 1.957z"></path>
<path fill="#a02e8e" style="fill: var(--color6, #a02e8e)" d="M3.83 7.042c0-1.8 1.424-3.261 3.18-3.261h21.537c1.755 0 3.18 1.461 3.18 3.261v21.602c0 1.8-1.425 3.261-3.18 3.261h-21.537c-1.755 0-3.18-1.461-3.18-3.261v-21.602zM30.454 28.644v-21.602c0-1.076-0.858-1.957-1.908-1.957h-21.537c-1.049 0-1.908 0.881-1.908 1.957v21.602c0 1.076 0.859 1.957 1.908 1.957h21.537c1.049 0 1.908-0.88 1.908-1.957z"></path>
<path fill="#a02e8e" style="fill: var(--color6, #a02e8e)" d="M18.247 11.119h5.626c1.165 0 2.11 0.945 2.11 2.11v11.253c0 1.165-0.945 2.11-2.11 2.11h-5.626c-1.165 0-2.11-0.945-2.11-2.11v-11.253c0-1.165 0.945-2.11 2.11-2.11zM18.247 25.185h5.626c0.388 0 0.703-0.315 0.703-0.703v-11.253c0-0.388-0.315-0.703-0.703-0.703s-0.703 0.315-0.703 0.703c0 0.388-0.315 0.703-0.703 0.703h-2.813c-0.388 0-0.703-0.315-0.703-0.703s-0.315-0.703-0.703-0.703c-0.388 0-0.703 0.315-0.703 0.703v11.253c0 0.388 0.315 0.703 0.703 0.703z"></path>
</symbol>
<symbol id="icon-4" viewBox="0 0 32 32">
<path fill="#708cf0" style="fill: var(--color7, #708cf0)" opacity="0.1" d="M25.352 2.135v21.602c0 1.076-0.859 1.957-1.908 1.957h-21.537c-1.049 0-1.908-0.881-1.908-1.957v-21.602c0-1.076 0.859-1.957 1.908-1.957h21.537c1.049 0 1.908 0.881 1.908 1.957z"></path>
<path fill="#708cf0" style="fill: var(--color7, #708cf0)" d="M3.83 7.042c0-1.8 1.424-3.261 3.18-3.261h21.537c1.755 0 3.18 1.461 3.18 3.261v21.602c0 1.8-1.425 3.261-3.18 3.261h-21.537c-1.755 0-3.18-1.461-3.18-3.261v-21.602zM30.454 28.644v-21.602c0-1.076-0.858-1.957-1.908-1.957h-21.537c-1.049 0-1.908 0.881-1.908 1.957v21.602c0 1.076 0.859 1.957 1.908 1.957h21.537c1.049 0 1.908-0.88 1.908-1.957z"></path>
<path fill="#708cf0" style="fill: var(--color7, #708cf0)" d="M14.468 20.876c1.054-0.779 2.517-0.65 3.421 0.303l6.527-6.59c0.061-0.064 0.146-0.1 0.235-0.099h0.189c0.18 0 0.326 0.147 0.326 0.329v0.987c-0 0.523-0.207 1.025-0.573 1.394l-3.257 3.288 0.684 0.691c0.904-0.953 2.367-1.082 3.421-0.303s1.374 2.227 0.747 3.384c-0.627 1.158-2.006 1.668-3.225 1.193s-1.901-1.788-1.595-3.070h-0.651c-0.171-0.001-0.335-0.069-0.456-0.191l-0.306-0.309-0.306 0.309c-0.121 0.122-0.285 0.19-0.456 0.191h-0.651c0.306 1.283-0.376 2.596-1.595 3.070s-2.598-0.035-3.225-1.193c-0.627-1.158-0.307-2.605 0.747-3.384zM24.938 23.775c0.347-0.521 0.281-1.217-0.157-1.662-0.243-0.247-0.574-0.387-0.919-0.388-0.622-0.003-1.159 0.439-1.282 1.054s0.2 1.233 0.774 1.475 1.237 0.042 1.584-0.479zM15.127 23.968c-0.372-0.321-0.534-0.826-0.419-1.307s0.486-0.856 0.962-0.971c0.476-0.116 0.976 0.048 1.294 0.423 0.372 0.321 0.534 0.826 0.419 1.307s-0.486 0.856-0.962 0.971c-0.476 0.116-0.976-0.048-1.294-0.423zM15.258 14.491c0.088-0.001 0.173 0.034 0.235 0.099l3.654 3.696-1.381 1.394-2.449-2.479c-0.367-0.37-0.573-0.871-0.573-1.394v-0.987c0-0.182 0.146-0.329 0.326-0.329h0.189z"></path>
</symbol>
<symbol id="icon-5" viewBox="0 0 32 32">
<path fill="#6dd6b0" style="fill: var(--color8, #6dd6b0)" opacity="0.1" d="M25.352 2.135v21.602c0 1.076-0.859 1.957-1.908 1.957h-21.537c-1.049 0-1.908-0.881-1.908-1.957v-21.602c0-1.076 0.859-1.957 1.908-1.957h21.537c1.049 0 1.908 0.881 1.908 1.957z"></path>
<path fill="#6dd6b0" style="fill: var(--color8, #6dd6b0)" d="M3.83 7.042c0-1.8 1.424-3.261 3.18-3.261h21.537c1.755 0 3.18 1.461 3.18 3.261v21.602c0 1.8-1.425 3.261-3.18 3.261h-21.537c-1.755 0-3.18-1.461-3.18-3.261v-21.602zM30.454 28.644v-21.602c0-1.076-0.858-1.957-1.908-1.957h-21.537c-1.049 0-1.908 0.881-1.908 1.957v21.602c0 1.076 0.859 1.957 1.908 1.957h21.537c1.049 0 1.908-0.88 1.908-1.957z"></path>
<path fill="#6dd6b0" style="fill: var(--color8, #6dd6b0)" d="M23.631 21.341h1.077c1.388 0 2.513 1.125 2.513 2.513s-1.125 2.513-2.513 2.513c-1.388 0-2.513-1.125-2.513-2.513v-1.077h-2.872v1.077c0 1.388-1.125 2.513-2.513 2.513s-2.513-1.125-2.513-2.513c0-1.388 1.125-2.513 2.513-2.513h1.077v-2.872h-1.077c-1.388 0-2.513-1.125-2.513-2.513s1.125-2.513 2.513-2.513c1.388 0 2.513 1.125 2.513 2.513v1.077h2.872v-1.077c0-1.388 1.125-2.513 2.513-2.513s2.513 1.125 2.513 2.513c0 1.388-1.125 2.513-2.513 2.513h-1.077v2.872zM24.708 14.88c-0.595 0-1.077 0.482-1.077 1.077v1.077h1.077c0.595 0 1.077-0.482 1.077-1.077s-0.482-1.077-1.077-1.077zM16.811 17.034c-0.595 0-1.077-0.482-1.077-1.077s0.482-1.077 1.077-1.077c0.595 0 1.077 0.482 1.077 1.077v1.077h-1.077zM16.811 24.931c0.595 0 1.077-0.482 1.077-1.077v-1.077h-1.077c-0.595 0-1.077 0.482-1.077 1.077s0.482 1.077 1.077 1.077zM19.324 21.341v-2.872h2.872v2.872h-2.872zM23.631 23.854c0 0.595 0.482 1.077 1.077 1.077s1.077-0.482 1.077-1.077c0-0.595-0.482-1.077-1.077-1.077h-1.077v1.077z"></path>
</symbol>
<symbol id="icon-6" viewBox="0 0 32 32">
<path fill="#a66df5" style="fill: var(--color5, #a66df5)" opacity="0.1" d="M25.571 1.974v21.788c0 1.085-0.866 1.974-1.924 1.974h-21.722c-1.058 0-1.924-0.888-1.924-1.974v-21.788c0-1.085 0.866-1.974 1.924-1.974h21.722c1.058 0 1.924 0.888 1.924 1.974z"></path>
<path fill="#a66df5" style="fill: var(--color5, #a66df5)" d="M3.863 6.922c0-1.816 1.437-3.289 3.207-3.289h21.722c1.77 0 3.207 1.474 3.207 3.289v21.788c0 1.816-1.437 3.289-3.207 3.289h-21.722c-1.77 0-3.207-1.474-3.207-3.289v-21.788zM30.717 28.711v-21.788c0-1.085-0.866-1.974-1.924-1.974h-21.722c-1.058 0-1.924 0.888-1.924 1.974v21.788c0 1.086 0.866 1.974 1.924 1.974h21.722c1.058 0 1.924-0.888 1.924-1.974z"></path>
<path fill="#a66df5" style="fill: var(--color5, #a66df5)" d="M19.143 16.158c0-1.123-0.902-2.035-2.016-2.035-1.109 0-2.011 0.912-2.016 2.035 0 1.123 0.902 2.035 2.016 2.035s2.016-0.912 2.016-2.035zM11.515 24.736h15.452c0.269 0 0.49-0.221 0.49-0.49v-3.85c0-0.134-0.048-0.269-0.13-0.374l-3.183-4.128c-0.211-0.283-0.624-0.322-0.888-0.086l-5.607 4.954c-0.211 0.182-0.509 0.206-0.744 0.053l-2.919-1.906c-0.278-0.178-0.643-0.11-0.835 0.158l-2.141 3.024c-0.072 0.106-0.11 0.226-0.11 0.355v1.675c0 0.341 0.278 0.614 0.614 0.614z"></path>
</symbol>
<symbol id="icon-11" viewBox="0 0 28 32">
<path fill="#fff" style="fill: var(--color9, #fff)" opacity="0.3" d="M17.818 6.855l-0.005 14.028c0 0.483-0.396 0.879-0.877 0.879h-16.059c-0.482 0-0.877-0.396-0.877-0.879v-19.823c0-0.483 0.396-0.879 0.877-0.879h10.722c0.482 0 0.877 0.396 0.877 0.879v2.603c0 0.976 0.745 1.752 1.729 1.752h2.736c0.482 0 0.877 0.396 0.877 0.879v0.562z"></path>
<path fill="none" opacity="0.69" stroke="#fff" style="stroke: var(--color9, #fff)" stroke-linejoin="miter" stroke-linecap="butt" stroke-miterlimit="4" stroke-width="0.7273" d="M27.273 13.972l-0.007 16.317c0 0.641-0.525 1.166-1.164 1.166h-21.302c-0.639 0-1.164-0.525-1.164-1.166v-24.004c0-0.641 0.525-1.165 1.164-1.165h14.223c0.639 0 1.164 0.525 1.164 1.165v3.452c0 1.295 0.989 2.324 2.294 2.324h3.629c0.639 0 1.164 0.525 1.164 1.166v0.745z"></path>
<path fill="#ecfffe" style="fill: var(--color10, #ecfffe)" d="M9.584 6.659c-0.607 0-1.149-0.384-1.347-0.956-0.124-0.358-0.101-0.744 0.065-1.085s0.456-0.597 0.816-0.721c0.73-0.251 1.563 0.157 1.814 0.878 0.256 0.74-0.139 1.55-0.882 1.806-0.15 0.052-0.307 0.078-0.465 0.078zM9.584 4.891c-0.038 0-0.077 0.006-0.114 0.019-0.088 0.030-0.159 0.093-0.2 0.177s-0.046 0.178-0.016 0.266c0.062 0.177 0.262 0.279 0.444 0.216s0.279-0.261 0.216-0.443c-0.049-0.14-0.181-0.234-0.33-0.234z"></path>
<path fill="#ecfffe" style="fill: var(--color10, #ecfffe)" d="M10.455 9.381l-1.084-3.123 1.017-0.35 1.084 3.123-1.017 0.35z"></path>
<path fill="#ecfffe" style="fill: var(--color10, #ecfffe)" d="M8.784 24.742l-1.966-3.194 0.917-0.56 1.966 3.194-0.917 0.56z"></path>
<path fill="#ecfffe" style="fill: var(--color10, #ecfffe)" d="M23.166 15.666l-1.966-3.194 0.917-0.56 1.966 3.194-0.917 0.56z"></path>
<path fill="#ecfffe" style="fill: var(--color10, #ecfffe)" d="M18.145 25.194c-0.802 0-1.53-0.406-1.949-1.086l-5.294-8.599c-0.658-1.069-0.32-2.472 0.753-3.128l0.271-0.165c0.359-0.219 0.771-0.335 1.191-0.335 0.802 0 1.53 0.406 1.949 1.086l5.293 8.599c0.32 0.518 0.417 1.129 0.274 1.719s-0.507 1.091-1.027 1.409l-0.27 0.165c-0.36 0.22-0.772 0.336-1.192 0.336zM13.118 13.487c-0.122 0-0.243 0.034-0.348 0.099l-0.271 0.165c-0.314 0.192-0.413 0.603-0.22 0.917l5.293 8.599c0.186 0.303 0.612 0.409 0.922 0.22l0.269-0.165c0.154-0.093 0.26-0.24 0.302-0.414s0.013-0.352-0.081-0.504l-5.294-8.6c-0.123-0.2-0.337-0.319-0.573-0.319z"></path>
<path fill="#ecfffe" style="fill: var(--color10, #ecfffe)" d="M17.193 18.232l-0.843-1.37 3.584-2.189 0.844 1.37-3.585 2.189z"></path>
<path fill="#ecfffe" style="fill: var(--color10, #ecfffe)" d="M10.899 22.076l-0.844-1.37 3.584-2.189 0.844 1.37-3.584 2.189z"></path>
<path fill="#ecfffe" style="fill: var(--color10, #ecfffe)" d="M21.289 18.237c-0.271 0-0.537-0.136-0.688-0.384l-2.348-3.814c-0.112-0.182-0.147-0.4-0.097-0.608s0.181-0.386 0.363-0.498l5.178-3.162c0.183-0.112 0.402-0.146 0.61-0.096s0.388 0.18 0.5 0.361l2.348 3.814c0.233 0.379 0.114 0.873-0.266 1.105l-5.177 3.162c-0.132 0.080-0.277 0.118-0.421 0.118zM20.050 13.884l1.505 2.444 3.802-2.322-1.505-2.444-3.802 2.322z"></path>
<path fill="#ecfffe" style="fill: var(--color10, #ecfffe)" d="M6.792 27.091c-0.063 0-0.126-0.007-0.188-0.022-0.208-0.050-0.388-0.18-0.5-0.361l-2.348-3.814c-0.112-0.182-0.147-0.4-0.097-0.608s0.181-0.386 0.363-0.498l5.177-3.162c0.38-0.232 0.877-0.114 1.11 0.265l2.348 3.814c0.112 0.182 0.147 0.4 0.097 0.608s-0.181 0.386-0.363 0.498l-5.177 3.162c-0.128 0.078-0.274 0.119-0.422 0.119zM5.553 22.738l1.505 2.444 3.802-2.322-1.505-2.444-3.801 2.321z"></path>
<path fill="#ecfffe" style="fill: var(--color10, #ecfffe)" d="M10.887 13.277c-2.020 0-3.763-1.368-4.239-3.326-0.104-0.431 0.161-0.866 0.595-0.97l6.914-1.666c0.207-0.050 0.427-0.016 0.61 0.096s0.313 0.29 0.364 0.497c0.566 2.329-0.877 4.683-3.216 5.246-0.338 0.081-0.684 0.123-1.029 0.123zM8.522 10.327c0.484 0.817 1.371 1.343 2.364 1.343 0.217 0 0.436-0.026 0.649-0.078 1.201-0.289 2.027-1.328 2.099-2.497l-5.112 1.232z"></path>
</symbol>
<symbol id="icon-21" viewBox="0 0 28 32">
<path fill="#fff" style="fill: var(--color9, #fff)" opacity="0.3" d="M17.818 6.855l-0.005 14.028c0 0.483-0.396 0.879-0.877 0.879h-16.059c-0.482 0-0.877-0.396-0.877-0.879v-19.823c0-0.483 0.396-0.879 0.877-0.879h10.722c0.482 0 0.877 0.396 0.877 0.879v2.603c0 0.976 0.745 1.752 1.729 1.752h2.736c0.482 0 0.877 0.396 0.877 0.879v0.562z"></path>
<path fill="none" opacity="0.69" stroke="#fff" style="stroke: var(--color9, #fff)" stroke-linejoin="miter" stroke-linecap="butt" stroke-miterlimit="4" stroke-width="0.7273" d="M27.273 13.972l-0.007 16.317c0 0.641-0.525 1.166-1.164 1.166h-21.302c-0.639 0-1.164-0.525-1.164-1.166v-24.004c0-0.641 0.525-1.165 1.164-1.165h14.223c0.639 0 1.164 0.525 1.164 1.165v3.452c0 1.295 0.989 2.324 2.294 2.324h3.629c0.639 0 1.164 0.525 1.164 1.166v0.745z"></path>
<path fill="#ecfffe" style="fill: var(--color10, #ecfffe)" d="M20.203 27.059c-1.289 0-2.5-0.502-3.411-1.413s-1.413-2.122-1.413-3.411c0-1.289 0.502-2.5 1.413-3.411s2.122-1.413 3.411-1.413c1.288 0 2.5 0.502 3.41 1.413s1.413 2.122 1.413 3.411c0 1.289-0.502 2.5-1.413 3.411s-2.122 1.413-3.41 1.413zM20.203 19.426c-0.751 0-1.457 0.292-1.987 0.823s-0.824 1.236-0.823 1.987c-0.001 0.75 0.292 1.456 0.823 1.987s1.236 0.823 1.987 0.823c0.75 0 1.456-0.292 1.986-0.823s0.824-1.236 0.824-1.987c0-0.75-0.293-1.456-0.824-1.987s-1.236-0.823-1.986-0.823z"></path>
<path fill="#ecfffe" style="fill: var(--color10, #ecfffe)" d="M17.507 25.152c-0.072 0-0.145-0.012-0.216-0.037l-14.279-4.869c-0.352-0.12-0.539-0.501-0.419-0.852s0.503-0.539 0.852-0.418l14.279 4.869c0.351 0.12 0.539 0.501 0.419 0.852-0.095 0.279-0.356 0.455-0.635 0.455z"></path>
<path fill="#ecfffe" style="fill: var(--color10, #ecfffe)" d="M22.603 20.056c-0.279 0-0.54-0.175-0.635-0.455l-4.869-14.278c-0.12-0.351 0.068-0.732 0.419-0.852 0.347-0.121 0.732 0.067 0.852 0.419l4.869 14.278c0.12 0.351-0.067 0.732-0.419 0.852-0.071 0.024-0.144 0.036-0.216 0.036z"></path>
<path fill="#ecfffe" style="fill: var(--color10, #ecfffe)" d="M19.058 19.307c-0.239 0-0.471-0.128-0.592-0.353l-5.096-9.464c-0.176-0.326-0.053-0.733 0.273-0.909s0.733-0.054 0.909 0.273l5.096 9.465c0.176 0.326 0.053 0.733-0.273 0.909-0.101 0.055-0.21 0.080-0.317 0.080z"></path>
<path fill="#ecfffe" style="fill: var(--color10, #ecfffe)" d="M19.848 22.765c-0.172 0-0.343-0.066-0.475-0.197l-15.234-15.234c-0.262-0.262-0.262-0.687 0-0.95s0.687-0.262 0.949 0l15.234 15.234c0.262 0.262 0.262 0.687 0 0.949-0.131 0.131-0.303 0.197-0.475 0.197z"></path>
</symbol>
<symbol id="icon-31" viewBox="0 0 28 32">
<path fill="#fff" style="fill: var(--color9, #fff)" opacity="0.3" d="M17.818 6.855l-0.005 14.028c0 0.483-0.396 0.879-0.877 0.879h-16.059c-0.482 0-0.877-0.396-0.877-0.879v-19.823c0-0.483 0.396-0.879 0.877-0.879h10.722c0.482 0 0.877 0.396 0.877 0.879v2.603c0 0.976 0.745 1.752 1.729 1.752h2.736c0.482 0 0.877 0.396 0.877 0.879v0.562z"></path>
<path fill="none" opacity="0.69" stroke="#fff" style="stroke: var(--color9, #fff)" stroke-linejoin="miter" stroke-linecap="butt" stroke-miterlimit="4" stroke-width="0.7273" d="M27.273 13.972l-0.007 16.317c0 0.641-0.525 1.166-1.164 1.166h-21.302c-0.639 0-1.164-0.525-1.164-1.166v-24.004c0-0.641 0.525-1.165 1.164-1.165h14.223c0.639 0 1.164 0.525 1.164 1.165v3.452c0 1.295 0.989 2.324 2.294 2.324h3.629c0.639 0 1.164 0.525 1.164 1.166v0.745z"></path>
<path fill="#ecfffe" style="fill: var(--color10, #ecfffe)" d="M6.862 10.763c-1.49 0-2.703-1.212-2.703-2.702s1.212-2.703 2.703-2.703c1.49 0 2.703 1.212 2.703 2.703s-1.212 2.702-2.703 2.702zM6.862 6.7c-0.75 0-1.36 0.611-1.36 1.361s0.611 1.36 1.36 1.36c0.75 0 1.36-0.61 1.36-1.36s-0.61-1.361-1.36-1.361z"></path>
<path fill="#ecfffe" style="fill: var(--color10, #ecfffe)" d="M19.505 17.191c-1.010 0-1.831-0.822-1.831-1.831s0.821-1.831 1.831-1.831c1.009 0 1.831 0.821 1.831 1.831s-0.821 1.831-1.831 1.831zM19.505 14.871c-0.27 0-0.489 0.219-0.489 0.488s0.219 0.488 0.489 0.488c0.269 0 0.488-0.219 0.488-0.488s-0.219-0.488-0.488-0.488z"></path>
<path fill="#ecfffe" style="fill: var(--color10, #ecfffe)" d="M13.691 21.808c-3.602 0-6.532-2.93-6.532-6.532s2.93-6.531 6.532-6.531c3.071 0 5.69 2.088 6.369 5.079l-1.309 0.298c-0.539-2.375-2.62-4.034-5.060-4.034-2.861 0-5.189 2.328-5.189 5.189s2.328 5.189 5.189 5.189c2.474 0 4.615-1.759 5.091-4.181l1.318 0.259c-0.6 3.051-3.295 5.265-6.409 5.265z"></path>
<path fill="#ecfffe" style="fill: var(--color10, #ecfffe)" d="M15.483 15.567c0 0.99-0.802 1.792-1.792 1.792s-1.792-0.802-1.792-1.792c0-0.99 0.803-1.792 1.792-1.792s1.792 0.802 1.792 1.792z"></path>
<path fill="#ecfffe" style="fill: var(--color10, #ecfffe)" d="M13.691 27.070c-6.343 0-11.503-5.16-11.503-11.503 0-2.568 0.828-4.997 2.395-7.026l1.594 1.231c-1.292 1.672-1.974 3.676-1.974 5.795 0 5.232 4.257 9.489 9.489 9.489s9.489-4.257 9.489-9.489c0-5.232-4.257-9.489-9.489-9.489-1.737 0-3.435 0.473-4.911 1.368l-1.044-1.722c1.791-1.085 3.85-1.659 5.956-1.659 6.343 0 11.503 5.16 11.503 11.503s-5.16 11.503-11.503 11.503z"></path>
</symbol>
<symbol id="icon-add_resume" viewBox="0 0 35 32">
<path fill="#2c2c2c" style="fill: var(--color11, #2c2c2c)" opacity="0.3" d="M22.168 8.194l-0.006 12.733c0 0.593-0.492 1.079-1.091 1.079h-19.98c-0.599 0-1.091-0.486-1.091-1.079v-19.848c0-0.593 0.492-1.079 1.091-1.079h13.34c0.599 0 1.091 0.486 1.091 1.079v3.195c0 1.199 0.927 2.151 2.151 2.151h3.404c0.599 0 1.091 0.486 1.091 1.079v0.69z"></path>
<path fill="#2c2c2c" style="fill: var(--color11, #2c2c2c)" d="M21.554 16.527c-0.054-0.031-0.096-0.074-0.129-0.122-1.219-0.886-2.713-1.415-4.335-1.415-4.084 0-7.395 3.311-7.395 7.395 0 0.095 0.006 0.189 0.013 0.282 0.003 0.043 0.006 0.086 0.008 0.129h-0.021c0 0.227-0.184 0.411-0.411 0.411s-0.411-0.184-0.411-0.411c0-0.020 0.005-0.038 0.010-0.057v0c0.002-0.008 0.005-0.017 0.006-0.025-0.002-0.023-0.003-0.047-0.005-0.070v-0c-0.006-0.086-0.012-0.171-0.012-0.258 0-3.828 2.622-7.035 6.165-7.948-1.228-0.71-2.056-2.035-2.056-3.555 0-2.269 1.839-4.108 4.108-4.108s4.108 1.839 4.108 4.108c0 1.521-0.828 2.845-2.056 3.555 1.061 0.273 2.037 0.756 2.887 1.396-0.004 0.003-0.007 0.007-0.010 0.011s-0.006 0.007-0.010 0.010c0.157 0.125 0.209 0.343 0.106 0.522-0.113 0.196-0.365 0.264-0.561 0.15zM31.999 26.936h-4.085v4.34c0 0.4-0.305 0.724-0.681 0.724s-0.681-0.324-0.681-0.724v-4.34h-4.085c-0.376 0-0.681-0.324-0.681-0.724s0.305-0.724 0.681-0.724h4.085v-4.34c0-0.4 0.305-0.724 0.681-0.724s0.681 0.324 0.681 0.724v4.34h4.085c0.376 0 0.681 0.324 0.681 0.724s-0.305 0.724-0.681 0.724zM17.090 7.595c1.815 0 3.287 1.472 3.287 3.287s-1.472 3.287-3.287 3.287c-1.815 0-3.287-1.472-3.287-3.287s1.472-3.287 3.287-3.287z"></path>
<path fill="#2c2c2c" style="fill: var(--color11, #2c2c2c)" d="M22.313 3.192l5.050 5.006c0.189 0.196 0.297 0.454 0.303 0.713l-0.013 9.706h-1.227l0.004-7.006c0-0.593-0.492-1.079-1.091-1.079h-3.404c-1.224 0-2.151-0.953-2.151-2.151v-3.195c0-0.593-0.492-1.079-1.091-1.079h-13.34c-0.599 0-1.091 0.486-1.091 1.079v19.848c0 0.593 0.492 1.079 1.091 1.079h14.682v1.274h-15.004c-1.104 0-2-0.896-2-2v-20.491c0-1.104 0.889-2 2-2h16.57c0.265 0 0.524 0.107 0.713 0.296zM26.133 8.898l-4.672-4.665c-0.189-0.196-0.524-0.063-0.524 0.215v3.738c0 0.681 0.555 1.236 1.236 1.236h3.744c0.271 0 0.41-0.328 0.214-0.524z"></path>
</symbol>
<symbol id="icon-behance" viewBox="0 0 32 32">
<path fill="#fff" style="fill: var(--color9, #fff)" d="M31.781 16.159c0 8.712-7.062 15.774-15.774 15.774s-15.774-7.062-15.774-15.774c0-8.712 7.062-15.774 15.774-15.774s15.774 7.062 15.774 15.774zM16.339 13.374c0-0.651-0.171-1.21-0.511-1.677-0.567-0.761-1.528-1.151-2.887-1.171h-5.383v10.99h5.020c0.566 0 1.090-0.048 1.574-0.147 0.484-0.1 0.903-0.283 1.258-0.552 0.316-0.234 0.579-0.523 0.789-0.865 0.332-0.517 0.497-1.101 0.497-1.753 0-0.632-0.145-1.169-0.433-1.61-0.291-0.442-0.72-0.765-1.288-0.97 0.374-0.188 0.657-0.397 0.85-0.625 0.345-0.408 0.515-0.948 0.515-1.619zM9.777 14.859v-2.425h2.425c0.533 0 0.972 0.057 1.317 0.171 0.399 0.165 0.598 0.503 0.598 1.016 0 0.46-0.152 0.782-0.453 0.964-0.303 0.182-0.696 0.273-1.179 0.273h-2.709zM9.777 16.677v2.931h2.705c0.483 0 0.861-0.065 1.129-0.193 0.489-0.241 0.732-0.696 0.732-1.372 0-0.573-0.235-0.965-0.709-1.179-0.265-0.119-0.637-0.182-1.114-0.186h-2.743zM19.076 12.406h4.774v-1.368h-4.774v1.368zM24.852 14.756c-0.373-0.548-0.847-0.949-1.422-1.203-0.575-0.254-1.22-0.382-1.938-0.382-1.207 0-2.188 0.377-2.946 1.127-0.756 0.752-1.134 1.832-1.134 3.241 0 1.502 0.418 2.587 1.258 3.253 0.836 0.667 1.804 1 2.901 1 1.328 0 2.362-0.395 3.099-1.185 0.473-0.498 0.74-0.988 0.798-1.469h-2.199c-0.127 0.238-0.276 0.425-0.444 0.559-0.306 0.248-0.706 0.372-1.195 0.372-0.464 0-0.86-0.102-1.188-0.306-0.543-0.327-0.827-0.899-0.863-1.714h6.003c0.009-0.702-0.014-1.241-0.072-1.613-0.1-0.637-0.318-1.197-0.658-1.68zM19.633 16.648c0.078-0.529 0.27-0.948 0.575-1.258s0.735-0.464 1.286-0.464c0.509 0 0.934 0.145 1.279 0.437 0.341 0.294 0.534 0.721 0.573 1.285h-3.713z"></path>
</symbol>
<symbol id="icon-dribbble" viewBox="0 0 33 32">
<path fill="#fff" style="fill: var(--color9, #fff)" d="M32.218 16.159c0-8.712-7.062-15.774-15.774-15.774s-15.774 7.062-15.774 15.774c0 8.712 7.062 15.774 15.774 15.774s15.774-7.062 15.774-15.774zM25.458 16.147c0 0.61-0.062 1.218-0.184 1.812-0.119 0.579-0.295 1.148-0.526 1.692-0.225 0.534-0.505 1.049-0.831 1.529-0.322 0.477-0.692 0.924-1.099 1.332-0.408 0.406-0.857 0.776-1.334 1.099-0.482 0.324-0.997 0.603-1.531 0.83-0.544 0.229-1.114 0.405-1.693 0.524-0.594 0.122-1.205 0.185-1.816 0.185s-1.222-0.062-1.815-0.185c-0.58-0.119-1.15-0.294-1.694-0.524-0.534-0.226-1.050-0.506-1.532-0.83-0.477-0.323-0.926-0.693-1.333-1.099-0.408-0.408-0.778-0.855-1.1-1.332-0.325-0.48-0.605-0.995-0.831-1.529-0.231-0.544-0.407-1.112-0.526-1.692-0.121-0.593-0.182-1.202-0.182-1.812s0.062-1.22 0.182-1.812c0.119-0.579 0.296-1.149 0.526-1.692 0.226-0.534 0.506-1.050 0.831-1.53 0.322-0.477 0.693-0.924 1.1-1.332 0.407-0.406 0.856-0.775 1.333-1.097 0.482-0.326 0.997-0.605 1.532-0.832 0.544-0.23 1.114-0.406 1.694-0.524 0.593-0.121 1.204-0.183 1.815-0.183s1.221 0.062 1.816 0.183c0.579 0.118 1.149 0.294 1.693 0.524 0.534 0.227 1.050 0.506 1.531 0.832 0.477 0.323 0.926 0.691 1.334 1.097 0.407 0.408 0.778 0.855 1.099 1.332 0.327 0.48 0.606 0.995 0.831 1.53 0.231 0.543 0.407 1.112 0.526 1.692 0.122 0.592 0.184 1.202 0.184 1.812zM16.444 8.46c-0.625 0-1.232 0.076-1.814 0.215l0.013 0.017c0.182 0.244 1.585 2.12 2.865 4.467 2.881-1.078 3.983-2.727 4.019-2.781l0.001-0.001c-1.355-1.193-3.135-1.917-5.084-1.917zM18.612 15.42c0.057 0.135 0.112 0.266 0.166 0.398 2.594-0.326 5.15 0.206 5.352 0.248l0.009 0.002c-0.018-1.822-0.67-3.495-1.75-4.804l-0 0.001c-0.030 0.043-1.268 1.809-4.288 3.041 0.179 0.367 0.352 0.74 0.511 1.115zM20.746 22.521c-0.078-0.463-0.489-2.72-1.498-5.49 2.485-0.398 4.638 0.283 4.797 0.334-0.342 2.142-1.57 3.992-3.298 5.156zM17.805 17.387c1.083 2.811 1.53 5.165 1.644 5.837-0.924 0.392-1.939 0.609-3.005 0.609-1.785 0-3.424-0.612-4.731-1.627 0.016-0.035 1.499-3.221 6.041-4.802 0.011-0.004 0.021-0.007 0.032-0.011l0.008-0.003 0.010-0.003zM8.753 15.901c-0.001 0.026-0.002 0.051-0.002 0.076v0c-0.002 0.056-0.004 0.112-0.004 0.169 0 1.975 0.746 3.775 1.972 5.136-0.003-0.004 2.104-3.736 6.258-5.077 0.1-0.033 0.203-0.063 0.304-0.092-0.193-0.437-0.404-0.875-0.625-1.306-3.964 1.185-7.767 1.1-7.903 1.094zM8.911 14.562l0.007 0c0.263 0.002 3.442 0.032 7.099-0.938-1.332-2.364-2.756-4.293-2.858-4.429-2.147 1.012-3.749 2.987-4.248 5.368z"></path>
</symbol>
<symbol id="icon-flash" viewBox="0 0 32 32">
<path fill="none" stroke="#ffd703" style="stroke: var(--color12, #ffd703)" stroke-linejoin="miter" stroke-linecap="butt" stroke-miterlimit="4" stroke-width="2.6667" d="M24.12 13.627l-9.333 15.227c-0.183 0.296-0.505 0.477-0.853 0.48h-0.267c-0.187-0-0.365-0.077-0.493-0.213s-0.191-0.321-0.173-0.507l0.747-8.613h-4.76c-0.358-0.004-0.688-0.197-0.867-0.507l-0.253-0.44c-0.127-0.209-0.127-0.471 0-0.68l9.333-15.227c0.188-0.304 0.523-0.486 0.88-0.48h0.267c0.187 0 0.365 0.078 0.493 0.213s0.191 0.321 0.173 0.507l-0.76 8.613h4.76c0.358 0.004 0.688 0.197 0.867 0.507l0.253 0.44c0.123 0.211 0.118 0.474-0.013 0.68z"></path>
</symbol>
<symbol id="icon-flash-black" viewBox="0 0 22 32">
<path d="M20.944 13.152l-11.2 18.272c-0.22 0.355-0.606 0.573-1.024 0.576h-0.32c-0.224-0-0.438-0.093-0.592-0.256s-0.229-0.385-0.208-0.608l0.896-10.336h-5.712c-0.43-0.005-0.825-0.236-1.040-0.608l-0.304-0.528c-0.153-0.251-0.153-0.565 0-0.816l11.2-18.272c0.226-0.365 0.627-0.584 1.056-0.576h0.32c0.224 0 0.438 0.093 0.592 0.256s0.229 0.385 0.208 0.608l-0.912 10.336h5.712c0.43 0.005 0.825 0.236 1.040 0.608l0.304 0.528c0.148 0.254 0.142 0.568-0.016 0.816z"></path>
</symbol>
<symbol id="icon-get_file" viewBox="0 0 35 32">
<path fill="#2c2c2c" style="fill: var(--color11, #2c2c2c)" opacity="0.3" d="M22.169 8.194l-0.006 12.733c0 0.593-0.492 1.079-1.091 1.079h-19.98c-0.599 0-1.091-0.486-1.091-1.079v-19.848c0-0.593 0.492-1.079 1.091-1.079h13.34c0.599 0 1.091 0.486 1.091 1.079v3.195c0 1.199 0.927 2.151 2.151 2.151h3.404c0.599 0 1.091 0.486 1.091 1.079v0.69z"></path>
<path fill="#2c2c2c" style="fill: var(--color11, #2c2c2c)" d="M19.631 14.412c-0.421 0-0.825 0.167-1.123 0.465s-0.465 0.702-0.465 1.123c0 0.421 0.167 0.825 0.465 1.123s0.702 0.465 1.123 0.465 0.825-0.167 1.123-0.465c0.298-0.298 0.465-0.702 0.465-1.123s-0.167-0.825-0.465-1.123-0.702-0.465-1.123-0.465zM18.027 14.395c0.426-0.426 1.003-0.665 1.605-0.665s1.179 0.239 1.605 0.665 0.665 1.003 0.665 1.605c0 0.602-0.239 1.179-0.665 1.605s-1.003 0.665-1.605 0.665c-0.602 0-1.179-0.239-1.605-0.665s-0.665-1.003-0.665-1.605c0-0.602 0.239-1.179 0.665-1.605z"></path>
<path fill="#2c2c2c" style="fill: var(--color11, #2c2c2c)" d="M15.773 18.269c-0.421 0-0.825 0.167-1.123 0.465s-0.465 0.702-0.465 1.123c0 0.421 0.167 0.825 0.465 1.123s0.702 0.465 1.123 0.465c0.421 0 0.825-0.167 1.123-0.465s0.465-0.702 0.465-1.123v-1.589h-1.589zM13.504 19.858c0-0.602 0.239-1.179 0.665-1.605s1.003-0.665 1.605-0.665h2.269v2.269c0 0.602-0.239 1.179-0.665 1.605s-1.003 0.665-1.605 0.665c-0.602 0-1.179-0.239-1.605-0.665-0.345-0.345-0.567-0.788-0.639-1.264h-0.026v-0.34z"></path>
<path fill="#2c2c2c" style="fill: var(--color11, #2c2c2c)" d="M17.362 9.872h2.269c0.602 0 1.179 0.239 1.605 0.665s0.665 1.003 0.665 1.605c0 0.602-0.239 1.179-0.665 1.605s-1.003 0.665-1.605 0.665l-2.269-0v-4.539zM18.043 10.553v3.177l1.589 0c0.421 0 0.825-0.168 1.123-0.466s0.465-0.702 0.465-1.123c0-0.421-0.167-0.825-0.465-1.123s-0.702-0.465-1.123-0.465h-1.589z"></path>
<path fill="#2c2c2c" style="fill: var(--color11, #2c2c2c)" d="M14.169 10.537c0.426-0.426 1.003-0.665 1.605-0.665h2.269v4.539h-2.269c-0.602 0-1.179-0.239-1.605-0.665-0.345-0.345-0.567-0.788-0.639-1.264h-0.026v-0.34c0-0.602 0.239-1.179 0.665-1.605zM14.185 12.142c0 0.421 0.167 0.825 0.465 1.123s0.702 0.465 1.123 0.465h1.589v-3.177h-1.589c-0.421 0-0.825 0.167-1.123 0.465s-0.465 0.702-0.465 1.123z"></path>
<path fill="#2c2c2c" style="fill: var(--color11, #2c2c2c)" d="M14.169 14.395c0.426-0.426 1.003-0.665 1.605-0.665h2.269l0 4.539-2.269-0c-0.602 0-1.179-0.239-1.605-0.664-0.345-0.345-0.567-0.788-0.639-1.264h-0.026v-0.34c0-0.602 0.239-1.179 0.665-1.605zM14.185 16c0 0.421 0.167 0.825 0.465 1.123s0.702 0.465 1.123 0.465l1.589 0-0-3.177h-1.588c-0.421 0-0.825 0.168-1.123 0.465s-0.465 0.702-0.465 1.123z"></path>
<path fill="#2c2c2c" style="fill: var(--color11, #2c2c2c)" d="M22.313 3.192l5.050 5.006c0.189 0.196 0.296 0.454 0.303 0.713l-0.013 11.068h-1.227l0.004-8.367c0-0.593-0.492-1.079-1.091-1.079h-3.404c-1.224 0-2.151-0.953-2.151-2.151v-3.195c0-0.593-0.492-1.079-1.091-1.079h-13.34c-0.599 0-1.091 0.486-1.091 1.079v19.848c0 0.593 0.492 1.079 1.091 1.079h14.682v1.274h-15.004c-1.104 0-2-0.896-2-2v-20.491c0-1.104 0.889-2 2-2h16.57c0.265 0 0.524 0.107 0.713 0.296zM26.133 8.898l-4.672-4.665c-0.189-0.196-0.524-0.063-0.524 0.215v3.738c0 0.681 0.555 1.236 1.236 1.236h3.744c0.271 0 0.41-0.328 0.215-0.524z"></path>
<path fill="#2c2c2c" style="fill: var(--color11, #2c2c2c)" d="M29.817 21.646c0.266-0.266 0.697-0.266 0.963 0l4.426 4.426c0.266 0.266 0.266 0.697 0 0.963l-4.426 4.426c-0.266 0.266-0.697 0.266-0.963 0s-0.266-0.697 0-0.963l3.263-3.263h-9.59c-0.376 0-0.681-0.305-0.681-0.681s0.305-0.681 0.681-0.681h9.59l-3.263-3.263c-0.266-0.266-0.266-0.697 0-0.963z"></path>
</symbol>
<symbol id="icon-heart" viewBox="0 0 36 32">
<path fill="#3fc2bb" style="fill: var(--color13, #3fc2bb)" d="M19.009 3.738v2.735h-4.558v-2.735h-2.735v-3.647h-3.647v3.647h-3.647v2.735h-3.647v7.293h3.647v3.647h3.647v3.647h3.647v3.647h10.029v-3.647h3.647v-3.647h3.647v-3.647h3.647v-7.293h-3.647v-2.735h-3.647v-3.647h-3.647v3.647h-2.735z"></path>
<path fill="#3fc2bb" style="fill: var(--color13, #3fc2bb)" d="M15.362 27.898h3.496v3.495h-3.496v-3.495z"></path>
</symbol>
<symbol id="icon-instagram" viewBox="0 0 32 32">
<path fill="#3fc2bb" style="fill: var(--color13, #3fc2bb)" d="M32 16c0 8.837-7.163 16-16 16s-16-7.163-16-16c0-8.837 7.163-16 16-16s16 7.163 16 16zM12.231 6.912c0.975-0.044 1.287-0.055 3.77-0.055h-0.003c2.484 0 2.794 0.011 3.77 0.055 0.973 0.045 1.638 0.199 2.221 0.425 0.602 0.233 1.111 0.546 1.619 1.054s0.821 1.018 1.055 1.62c0.225 0.581 0.379 1.246 0.425 2.219 0.044 0.975 0.055 1.287 0.055 3.77s-0.011 2.794-0.055 3.769c-0.046 0.973-0.2 1.638-0.425 2.219-0.234 0.601-0.547 1.111-1.055 1.619s-1.017 0.822-1.619 1.055c-0.582 0.226-1.247 0.38-2.22 0.425-0.975 0.044-1.286 0.055-3.769 0.055s-2.794-0.011-3.77-0.055c-0.973-0.045-1.638-0.199-2.219-0.425-0.601-0.234-1.111-0.547-1.619-1.055s-0.821-1.018-1.054-1.62c-0.226-0.581-0.38-1.246-0.425-2.219-0.044-0.975-0.055-1.286-0.055-3.769s0.011-2.795 0.055-3.77c0.044-0.973 0.198-1.638 0.425-2.219 0.234-0.601 0.547-1.111 1.055-1.619s1.018-0.821 1.62-1.054c0.581-0.226 1.246-0.38 2.219-0.425zM15.696 8.505h-0.001c-0.185-0-0.356-0-0.515 0v-0.002c-1.704 0.002-2.031 0.013-2.874 0.051-0.891 0.041-1.375 0.19-1.698 0.315-0.427 0.166-0.731 0.364-1.051 0.684s-0.519 0.625-0.684 1.051c-0.125 0.322-0.274 0.806-0.315 1.698-0.044 0.964-0.053 1.252-0.053 3.693s0.009 2.731 0.053 3.695c0.041 0.891 0.19 1.375 0.315 1.697 0.166 0.427 0.364 0.731 0.684 1.051s0.625 0.518 1.051 0.684c0.322 0.125 0.806 0.274 1.698 0.315 0.964 0.044 1.253 0.053 3.695 0.053s2.731-0.010 3.694-0.053c0.891-0.041 1.376-0.189 1.698-0.315 0.427-0.166 0.731-0.364 1.051-0.684s0.518-0.624 0.684-1.050c0.125-0.322 0.274-0.806 0.315-1.697 0.044-0.964 0.053-1.253 0.053-3.693s-0.010-2.73-0.053-3.693c-0.041-0.891-0.19-1.375-0.315-1.697-0.166-0.427-0.364-0.731-0.684-1.051s-0.624-0.518-1.051-0.684c-0.322-0.125-0.806-0.274-1.698-0.315-0.964-0.044-1.253-0.053-3.694-0.053l-0.305-0zM20.881 10.023c-0.606 0-1.097 0.491-1.097 1.097s0.491 1.097 1.097 1.097 1.097-0.491 1.097-1.097c0-0.606-0.491-1.097-1.097-1.097zM16.001 11.305c-2.593 0-4.695 2.102-4.695 4.695s2.102 4.694 4.695 4.694c2.593 0 4.694-2.101 4.694-4.694s-2.102-4.695-4.694-4.695zM16.001 12.952c1.683 0 3.048 1.364 3.048 3.048s-1.365 3.048-3.048 3.048c-1.683 0-3.048-1.365-3.048-3.048s1.364-3.048 3.048-3.048z"></path>
</symbol>
<symbol id="icon-instagram-white" viewBox="0 0 32 32">
<path fill="#fff" style="fill: var(--color9, #fff)" d="M31.767 16.159c0 8.712-7.062 15.774-15.774 15.774s-15.774-7.062-15.774-15.774c0-8.712 7.062-15.774 15.774-15.774s15.774 7.062 15.774 15.774zM12.277 7.2c0.961-0.044 1.269-0.054 3.717-0.054h-0.003c2.449 0 2.755 0.011 3.716 0.054 0.96 0.044 1.615 0.196 2.19 0.419 0.593 0.23 1.095 0.538 1.596 1.039s0.809 1.004 1.040 1.597c0.222 0.573 0.374 1.228 0.419 2.188 0.043 0.961 0.055 1.269 0.055 3.717s-0.011 2.755-0.055 3.716c-0.045 0.959-0.197 1.614-0.419 2.188-0.231 0.593-0.539 1.096-1.040 1.597s-1.003 0.81-1.596 1.040c-0.573 0.223-1.229 0.375-2.189 0.419-0.962 0.044-1.268 0.055-3.716 0.055s-2.755-0.011-3.716-0.055c-0.959-0.044-1.615-0.196-2.188-0.419-0.592-0.23-1.095-0.539-1.596-1.040s-0.809-1.004-1.040-1.597c-0.223-0.573-0.375-1.228-0.419-2.188-0.044-0.961-0.054-1.268-0.054-3.716s0.011-2.755 0.054-3.717c0.043-0.959 0.195-1.614 0.419-2.188 0.231-0.593 0.539-1.096 1.040-1.597s1.004-0.809 1.597-1.039c0.573-0.223 1.228-0.375 2.188-0.419zM15.693 8.77h-0.002c-0.182-0-0.35-0-0.507 0v-0.002c-1.68 0.002-2.002 0.013-2.834 0.051-0.879 0.040-1.356 0.187-1.674 0.311-0.421 0.164-0.721 0.359-1.037 0.675s-0.511 0.616-0.675 1.037c-0.123 0.318-0.27 0.795-0.31 1.674-0.043 0.95-0.052 1.234-0.052 3.641s0.009 2.693 0.052 3.643c0.040 0.879 0.187 1.356 0.31 1.673 0.164 0.421 0.359 0.721 0.675 1.036s0.616 0.511 1.037 0.674c0.318 0.123 0.795 0.27 1.674 0.311 0.95 0.043 1.235 0.053 3.642 0.053s2.692-0.009 3.642-0.053c0.879-0.040 1.356-0.187 1.674-0.311 0.421-0.163 0.72-0.359 1.036-0.674s0.511-0.615 0.675-1.035c0.123-0.317 0.27-0.794 0.31-1.673 0.043-0.95 0.053-1.236 0.053-3.641s-0.009-2.691-0.053-3.641c-0.040-0.879-0.187-1.356-0.31-1.673-0.164-0.421-0.359-0.721-0.675-1.037s-0.615-0.511-1.036-0.674c-0.318-0.123-0.795-0.27-1.674-0.31-0.95-0.043-1.236-0.052-3.642-0.052l-0.3-0zM20.805 10.266c-0.597 0-1.082 0.484-1.082 1.081s0.484 1.082 1.082 1.082 1.082-0.485 1.082-1.082c0-0.597-0.485-1.081-1.082-1.081zM15.993 11.53c-2.556 0-4.629 2.073-4.629 4.629s2.073 4.628 4.629 4.628c2.556 0 4.628-2.072 4.628-4.628s-2.072-4.629-4.628-4.629zM15.993 13.155c1.659 0 3.005 1.345 3.005 3.005s-1.345 3.005-3.005 3.005c-1.66 0-3.005-1.345-3.005-3.005s1.345-3.005 3.005-3.005z"></path>
</symbol>
<symbol id="icon-left" viewBox="0 0 20 32">
<path d="M15.297 0.943c0.521-0.521 1.365-0.521 1.886 0l1.875 1.875c0.52 0.52 0.521 1.364 0.001 1.885l-11.273 11.297 11.273 11.297c0.52 0.521 0.519 1.364-0.001 1.885l-1.875 1.875c-0.521 0.521-1.365 0.521-1.886 0l-15.057-15.057 15.057-15.057z"></path>
</symbol>
<symbol id="icon-linkedin" viewBox="0 0 32 32">
<path fill="#3fc2bb" style="fill: var(--color13, #3fc2bb)" d="M32 16c0 8.837-7.163 16-16 16s-16-7.163-16-16c0-8.837 7.163-16 16-16s16 7.163 16 16zM12.43 9.227c-0.022-1.021-0.745-1.798-1.918-1.798s-1.94 0.777-1.94 1.798c0 0.999 0.744 1.799 1.896 1.799h0.022c1.196 0 1.941-0.8 1.941-1.799zM12.204 12.447h-3.429v10.41h3.429v-10.41zM20.623 12.202c2.257 0 3.949 1.488 3.949 4.686l-0 5.969h-3.429v-5.569c0-1.399-0.496-2.353-1.738-2.353-0.947 0-1.512 0.644-1.76 1.265-0.091 0.223-0.113 0.533-0.113 0.844v5.814h-3.43c0 0 0.045-9.433 0-10.41h3.43v1.475c0.455-0.709 1.27-1.719 3.091-1.719z"></path>
</symbol>
<symbol id="icon-logo-play" viewBox="0 0 105 32">
<path fill="#fff" style="fill: var(--color9, #fff)" d="M9.552 0.137c0.765 0.347 1.102 1.247 0.754 2.009l-5.615 12.265h8.797c0.841 0 1.523 0.679 1.523 1.516v13.896c0 0.837-0.682 1.516-1.523 1.516s-1.522-0.679-1.522-1.516v-12.38h-9.643c-0.518 0-1-0.262-1.281-0.696s-0.32-0.98-0.105-1.449l6.598-14.411c0.349-0.762 1.252-1.098 2.017-0.751z"></path>
<path fill="#fff" style="fill: var(--color9, #fff)" d="M58.672 13.648c-1.6 0-2.933-0.489-3.999-1.468s-1.6-2.171-1.6-3.578c0-1.407 0.54-2.599 1.62-3.578 1.080-0.991 2.42-1.486 4.019-1.486s2.933 0.489 3.999 1.468c1.080 0.979 1.62 2.177 1.62 3.596 0 1.394-0.54 2.587-1.62 3.578-1.080 0.979-2.426 1.468-4.039 1.468zM58.712 11.722c0.96 0 1.733-0.3 2.32-0.899s0.88-1.339 0.88-2.22c0-0.868-0.307-1.602-0.92-2.202-0.613-0.612-1.386-0.917-2.32-0.917-0.946 0-1.713 0.3-2.3 0.899s-0.88 1.339-0.88 2.22c0 0.856 0.306 1.59 0.92 2.202s1.38 0.917 2.3 0.917z"></path>
<path fill="#fff" style="fill: var(--color9, #fff)" d="M70.19 13.502c-0.402 0-0.766-0.236-0.928-0.602l-3.44-7.739c-0.297-0.668 0.194-1.42 0.928-1.42h0.351c0.416 0 0.79 0.253 0.943 0.638l1.645 4.125c0.339 0.849 1.545 0.851 1.886 0.002l1.659-4.129c0.154-0.384 0.527-0.635 0.942-0.635h0.296c0.733 0 1.225 0.75 0.929 1.419l-3.424 7.739c-0.162 0.367-0.527 0.603-0.929 0.603h-0.857z"></path>
<path fill="#fff" style="fill: var(--color9, #fff)" d="M82.315 13.648c-1.546 0-2.839-0.471-3.879-1.413-1.026-0.942-1.54-2.159-1.54-3.651 0-1.407 0.487-2.599 1.46-3.578s2.206-1.468 3.7-1.468c1.599 0 2.839 0.502 3.719 1.505 0.893 0.991 1.339 2.226 1.339 3.706 0 0.362-0.304 0.624-0.668 0.624h-5.926c-0.629 0-1.125 0.586-0.797 1.122 0.162 0.265 0.366 0.497 0.612 0.695 0.546 0.428 1.22 0.642 2.019 0.642 0.785 0 1.52-0.219 2.206-0.658 0.399-0.255 0.924-0.278 1.291 0.021 0.426 0.347 0.479 0.987 0.044 1.322-0.978 0.754-2.172 1.131-3.582 1.131zM79.64 6.801c-0.287 0.543 0.206 1.105 0.823 1.105h3.122c0.603 0 1.094-0.537 0.836-1.080-0.134-0.281-0.309-0.532-0.526-0.754-0.466-0.477-1.086-0.716-1.859-0.716-0.734 0-1.346 0.239-1.84 0.716-0.226 0.213-0.411 0.456-0.556 0.73z"></path>
<path fill="#fff" style="fill: var(--color9, #fff)" d="M90.559 13.428c-0.56 0-1.014-0.453-1.014-1.011v-7.666c0-0.558 0.454-1.011 1.014-1.011h1.018c0.214 0 0.387 0.173 0.387 0.386 0 0.416 0.714 0.612 1.022 0.33 0.525-0.481 1.161-0.77 1.909-0.867 0.449-0.058 0.809 0.324 0.809 0.775v1.402c0 0.077-0.062 0.139-0.14 0.139-1.093 0-1.966 0.33-2.619 0.991-0.654 0.648-0.98 1.596-0.98 2.844v2.677c0 0.558-0.454 1.011-1.015 1.011h-0.39z"></path>
<path fill="#fff" style="fill: var(--color9, #fff)" d="M33.52 4.394c-5.394-2.619-11.736-0.92-15.025 3.7-0.486 0.683-1.437 0.844-2.123 0.36s-0.848-1.431-0.361-2.114c4.156-5.839 12.117-7.938 18.843-4.672 7.465 3.625 10.643 12.525 7.033 19.899s-12.606 10.362-20.071 6.736c-0.756-0.367-1.070-1.275-0.701-2.028s1.28-1.066 2.036-0.698c5.993 2.91 13.146 0.491 16-5.339s0.362-12.934-5.631-15.844z"></path>
<path fill="#fff" style="fill: var(--color9, #fff)" d="M26.175 28.307c0-0.838 0.682-1.516 1.523-1.516h14.21c0.841 0 1.523 0.679 1.523 1.516s-0.682 1.516-1.523 1.516h-14.21c-0.841 0-1.523-0.679-1.523-1.516z"></path>
<path fill="#fff" style="fill: var(--color9, #fff)" d="M66.268 29.595c-0.561 0-1.015-0.453-1.015-1.011v-11.903c0-0.558 0.454-1.011 1.015-1.011h0.36c0.561 0 1.015 0.453 1.015 1.011v11.903c0 0.558-0.454 1.011-1.015 1.011h-0.36z"></path>
<path fill="#fff" style="fill: var(--color9, #fff)" d="M75.725 29.824c-1.58 0-2.897-0.509-3.951-1.526s-1.58-2.257-1.58-3.72c0-1.462 0.533-2.702 1.6-3.72 1.067-1.030 2.39-1.545 3.97-1.545s2.897 0.509 3.951 1.526c1.067 1.017 1.6 2.264 1.6 3.739 0 1.45-0.534 2.69-1.6 3.72-1.067 1.017-2.397 1.526-3.99 1.526zM75.765 27.821c0.948 0 1.712-0.312 2.292-0.935s0.869-1.393 0.869-2.308c0-0.903-0.303-1.666-0.909-2.289-0.606-0.636-1.37-0.954-2.291-0.954-0.935 0-1.692 0.312-2.272 0.935s-0.869 1.393-0.869 2.308c0 0.89 0.303 1.653 0.909 2.289s1.363 0.954 2.272 0.954z"></path>
<path fill="#fff" style="fill: var(--color9, #fff)" d="M87.125 29.671c-0.408 0-0.777-0.244-0.935-0.619l-3.433-8.126c-0.282-0.666 0.21-1.403 0.935-1.403h0.338c0.422 0 0.801 0.26 0.95 0.654l1.611 4.25c0.33 0.871 1.566 0.872 1.898 0.002l1.624-4.255c0.15-0.392 0.527-0.652 0.949-0.652h0.283c0.725 0 1.216 0.735 0.936 1.401l-3.417 8.126c-0.158 0.376-0.527 0.62-0.936 0.62h-0.804z"></path>
<path fill="#fff" style="fill: var(--color9, #fff)" d="M99.082 29.824c-1.527 0-2.805-0.49-3.832-1.469-1.014-0.979-1.522-2.244-1.522-3.796 0-1.462 0.481-2.702 1.442-3.72s2.179-1.526 3.654-1.526c1.58 0 2.805 0.521 3.674 1.564 0.882 1.030 1.323 2.314 1.323 3.853 0 0.376-0.315 0.649-0.692 0.649h-5.817c-0.626 0-1.122 0.578-0.818 1.123 0.165 0.294 0.374 0.549 0.63 0.766 0.54 0.445 1.206 0.668 1.995 0.668 0.76 0 1.474-0.219 2.14-0.658 0.416-0.274 0.972-0.298 1.351 0.026 0.406 0.349 0.459 0.97 0.046 1.313-0.974 0.805-2.166 1.208-3.577 1.208zM96.418 22.748c-0.266 0.551 0.226 1.105 0.84 1.105h3.071c0.602 0 1.090-0.532 0.852-1.081-0.134-0.309-0.314-0.584-0.538-0.826-0.461-0.496-1.074-0.744-1.838-0.744-0.724 0-1.33 0.248-1.817 0.744-0.234 0.232-0.425 0.5-0.57 0.803z"></path>
</symbol>
<symbol id="icon-logo-var" viewBox="0 0 105 32">
<path fill="#fff" style="fill: var(--color9, #fff)" d="M9.552 0.137c0.765 0.347 1.102 1.247 0.754 2.009l-5.615 12.265h8.797c0.841 0 1.523 0.679 1.523 1.516v13.896c0 0.837-0.682 1.516-1.523 1.516s-1.522-0.679-1.522-1.516v-12.38h-9.643c-0.518 0-1-0.262-1.281-0.696s-0.32-0.98-0.105-1.449l6.598-14.411c0.349-0.762 1.252-1.098 2.017-0.751z"></path>
<path fill="#fff" style="fill: var(--color9, #fff)" d="M58.672 13.648c-1.6 0-2.933-0.489-3.999-1.468s-1.6-2.171-1.6-3.578c0-1.407 0.54-2.599 1.62-3.578 1.080-0.991 2.42-1.486 4.019-1.486s2.933 0.489 3.999 1.468c1.080 0.979 1.62 2.177 1.62 3.596 0 1.394-0.54 2.587-1.62 3.578-1.080 0.979-2.426 1.468-4.039 1.468zM58.712 11.722c0.96 0 1.733-0.3 2.32-0.899s0.88-1.339 0.88-2.22c0-0.868-0.307-1.602-0.92-2.202-0.613-0.612-1.386-0.917-2.32-0.917-0.946 0-1.713 0.3-2.3 0.899s-0.88 1.339-0.88 2.22c0 0.856 0.306 1.59 0.92 2.202s1.38 0.917 2.3 0.917z"></path>
<path fill="#fff" style="fill: var(--color9, #fff)" d="M70.19 13.502c-0.402 0-0.766-0.236-0.928-0.602l-3.44-7.739c-0.297-0.668 0.194-1.42 0.928-1.42h0.351c0.416 0 0.79 0.253 0.943 0.638l1.645 4.125c0.339 0.849 1.545 0.851 1.886 0.002l1.659-4.129c0.154-0.384 0.527-0.635 0.942-0.635h0.296c0.733 0 1.225 0.75 0.929 1.419l-3.424 7.739c-0.162 0.367-0.527 0.603-0.929 0.603h-0.857z"></path>
<path fill="#fff" style="fill: var(--color9, #fff)" d="M82.315 13.648c-1.546 0-2.839-0.471-3.879-1.413-1.026-0.942-1.54-2.159-1.54-3.651 0-1.407 0.487-2.599 1.46-3.578s2.206-1.468 3.7-1.468c1.599 0 2.839 0.502 3.719 1.505 0.893 0.991 1.339 2.226 1.339 3.706 0 0.362-0.304 0.624-0.668 0.624h-5.926c-0.629 0-1.125 0.586-0.797 1.122 0.162 0.265 0.366 0.497 0.612 0.695 0.546 0.428 1.22 0.642 2.019 0.642 0.785 0 1.52-0.219 2.206-0.658 0.399-0.255 0.924-0.278 1.291 0.021 0.426 0.347 0.479 0.987 0.044 1.322-0.978 0.754-2.172 1.131-3.582 1.131zM79.64 6.801c-0.287 0.543 0.206 1.105 0.823 1.105h3.122c0.603 0 1.094-0.537 0.836-1.080-0.134-0.281-0.309-0.532-0.526-0.754-0.466-0.477-1.086-0.716-1.859-0.716-0.734 0-1.346 0.239-1.84 0.716-0.226 0.213-0.411 0.456-0.556 0.73z"></path>
<path fill="#fff" style="fill: var(--color9, #fff)" d="M90.559 13.428c-0.56 0-1.014-0.453-1.014-1.011v-7.666c0-0.558 0.454-1.011 1.014-1.011h1.018c0.214 0 0.387 0.173 0.387 0.386 0 0.416 0.714 0.612 1.022 0.33 0.525-0.481 1.161-0.77 1.909-0.867 0.449-0.058 0.809 0.324 0.809 0.775v1.402c0 0.077-0.062 0.139-0.14 0.139-1.093 0-1.966 0.33-2.619 0.991-0.654 0.648-0.98 1.596-0.98 2.844v2.677c0 0.558-0.454 1.011-1.015 1.011h-0.39z"></path>
<path fill="#fff" style="fill: var(--color9, #fff)" d="M33.52 4.394c-5.394-2.619-11.736-0.92-15.025 3.7-0.486 0.683-1.437 0.844-2.123 0.36s-0.848-1.431-0.361-2.114c4.156-5.839 12.117-7.938 18.843-4.672 7.465 3.625 10.643 12.525 7.033 19.899s-12.606 10.362-20.071 6.736c-0.756-0.367-1.070-1.275-0.701-2.028s1.28-1.066 2.036-0.698c5.993 2.91 13.146 0.491 16-5.339s0.362-12.934-5.631-15.844z"></path>
<path fill="#fff" style="fill: var(--color9, #fff)" d="M26.175 28.307c0-0.838 0.682-1.516 1.523-1.516h14.21c0.841 0 1.523 0.679 1.523 1.516s-0.682 1.516-1.523 1.516h-14.21c-0.841 0-1.523-0.679-1.523-1.516z"></path>
<path fill="#fff" style="fill: var(--color9, #fff)" d="M66.268 29.595c-0.561 0-1.015-0.453-1.015-1.011v-11.903c0-0.558 0.454-1.011 1.015-1.011h0.36c0.561 0 1.015 0.453 1.015 1.011v11.903c0 0.558-0.454 1.011-1.015 1.011h-0.36z"></path>
<path fill="#fff" style="fill: var(--color9, #fff)" d="M75.725 29.824c-1.58 0-2.897-0.509-3.951-1.526s-1.58-2.257-1.58-3.72c0-1.462 0.533-2.702 1.6-3.72 1.067-1.030 2.39-1.545 3.97-1.545s2.897 0.509 3.951 1.526c1.067 1.017 1.6 2.264 1.6 3.739 0 1.45-0.534 2.69-1.6 3.72-1.067 1.017-2.397 1.526-3.99 1.526zM75.765 27.821c0.948 0 1.712-0.312 2.292-0.935s0.869-1.393 0.869-2.308c0-0.903-0.303-1.666-0.909-2.289-0.606-0.636-1.37-0.954-2.291-0.954-0.935 0-1.692 0.312-2.272 0.935s-0.869 1.393-0.869 2.308c0 0.89 0.303 1.653 0.909 2.289s1.363 0.954 2.272 0.954z"></path>
<path fill="#fff" style="fill: var(--color9, #fff)" d="M87.125 29.671c-0.408 0-0.777-0.244-0.935-0.619l-3.433-8.126c-0.282-0.666 0.21-1.403 0.935-1.403h0.338c0.422 0 0.801 0.26 0.95 0.654l1.611 4.25c0.33 0.871 1.566 0.872 1.898 0.002l1.624-4.255c0.15-0.392 0.527-0.652 0.949-0.652h0.283c0.725 0 1.216 0.735 0.936 1.401l-3.417 8.126c-0.158 0.376-0.527 0.62-0.936 0.62h-0.804z"></path>
<path fill="#fff" style="fill: var(--color9, #fff)" d="M99.082 29.824c-1.527 0-2.805-0.49-3.832-1.469-1.014-0.979-1.522-2.244-1.522-3.796 0-1.462 0.481-2.702 1.442-3.72s2.179-1.526 3.654-1.526c1.58 0 2.805 0.521 3.674 1.564 0.882 1.030 1.323 2.314 1.323 3.853 0 0.376-0.315 0.649-0.692 0.649h-5.817c-0.626 0-1.122 0.578-0.818 1.123 0.165 0.294 0.374 0.549 0.63 0.766 0.54 0.445 1.206 0.668 1.995 0.668 0.76 0 1.474-0.219 2.14-0.658 0.416-0.274 0.972-0.298 1.351 0.026 0.406 0.349 0.459 0.97 0.046 1.313-0.974 0.805-2.166 1.208-3.577 1.208zM96.418 22.748c-0.266 0.551 0.226 1.105 0.84 1.105h3.071c0.602 0 1.090-0.532 0.852-1.081-0.134-0.309-0.314-0.584-0.538-0.826-0.461-0.496-1.074-0.744-1.838-0.744-0.724 0-1.33 0.248-1.817 0.744-0.234 0.232-0.425 0.5-0.57 0.803z"></path>
</symbol>
<symbol id="icon-right" viewBox="0 0 20 32">
<path d="M4.703 0.943c-0.521-0.521-1.365-0.521-1.886 0l-1.875 1.875c-0.52 0.52-0.521 1.364-0.001 1.885l11.273 11.297-11.273 11.297c-0.52 0.521-0.519 1.364 0.001 1.885l1.875 1.875c0.521 0.521 1.365 0.521 1.886 0l15.057-15.057-15.057-15.057z"></path>
</symbol>
<symbol id="icon-telegram" viewBox="0 0 32 32">
<path fill="#3fc2bb" style="fill: var(--color13, #3fc2bb)" d="M32 16c0-8.837-7.163-16-16-16s-16 7.163-16 16c0 8.837 7.163 16 16 16s16-7.163 16-16zM12.778 18.57l7.066-6.554c0.31-0.283-0.068-0.421-0.479-0.164l-8.721 5.655-3.767-1.208c-0.814-0.256-0.819-0.831 0.183-1.244l14.679-5.818c0.67-0.313 1.317 0.165 1.062 1.22l-2.5 12.108c-0.175 0.86-0.68 1.066-1.381 0.669l-3.808-2.892-1.848 1.847c-0.205 0.205-0.374 0.374-0.745 0.374l0.259-3.993z"></path>
</symbol>
<symbol id="icon-instagram-white1" viewBox="0 0 32 32">
<path fill="#fff" style="fill: var(--color9, #fff)" d="M31.767 16.159c0 8.712-7.062 15.774-15.774 15.774s-15.774-7.062-15.774-15.774c0-8.712 7.062-15.774 15.774-15.774s15.774 7.062 15.774 15.774zM12.277 7.2c0.961-0.044 1.269-0.054 3.717-0.054h-0.003c2.449 0 2.755 0.011 3.716 0.054 0.96 0.044 1.615 0.196 2.19 0.419 0.593 0.23 1.095 0.538 1.596 1.039s0.809 1.004 1.040 1.597c0.222 0.573 0.374 1.228 0.419 2.188 0.043 0.961 0.055 1.269 0.055 3.717s-0.011 2.755-0.055 3.716c-0.045 0.959-0.197 1.614-0.419 2.188-0.231 0.593-0.539 1.096-1.040 1.597s-1.003 0.81-1.596 1.040c-0.573 0.223-1.229 0.375-2.189 0.419-0.962 0.044-1.268 0.055-3.716 0.055s-2.755-0.011-3.716-0.055c-0.959-0.044-1.615-0.196-2.188-0.419-0.592-0.23-1.095-0.539-1.596-1.040s-0.809-1.004-1.040-1.597c-0.223-0.573-0.375-1.228-0.419-2.188-0.044-0.961-0.054-1.268-0.054-3.716s0.011-2.755 0.054-3.717c0.043-0.959 0.195-1.614 0.419-2.188 0.231-0.593 0.539-1.096 1.040-1.597s1.004-0.809 1.597-1.039c0.573-0.223 1.228-0.375 2.188-0.419zM15.693 8.77h-0.002c-0.182-0-0.35-0-0.507 0v-0.002c-1.68 0.002-2.002 0.013-2.834 0.051-0.879 0.040-1.356 0.187-1.674 0.311-0.421 0.164-0.721 0.359-1.037 0.675s-0.511 0.616-0.675 1.037c-0.123 0.318-0.27 0.795-0.31 1.674-0.043 0.95-0.052 1.234-0.052 3.641s0.009 2.693 0.052 3.643c0.040 0.879 0.187 1.356 0.31 1.673 0.164 0.421 0.359 0.721 0.675 1.036s0.616 0.511 1.037 0.674c0.318 0.123 0.795 0.27 1.674 0.311 0.95 0.043 1.235 0.053 3.642 0.053s2.692-0.009 3.642-0.053c0.879-0.040 1.356-0.187 1.674-0.311 0.421-0.163 0.72-0.359 1.036-0.674s0.511-0.615 0.675-1.035c0.123-0.317 0.27-0.794 0.31-1.673 0.043-0.95 0.053-1.236 0.053-3.641s-0.009-2.691-0.053-3.641c-0.040-0.879-0.187-1.356-0.31-1.673-0.164-0.421-0.359-0.721-0.675-1.037s-0.615-0.511-1.036-0.674c-0.318-0.123-0.795-0.27-1.674-0.31-0.95-0.043-1.236-0.052-3.642-0.052l-0.3-0zM20.805 10.266c-0.597 0-1.082 0.484-1.082 1.081s0.484 1.082 1.082 1.082 1.082-0.485 1.082-1.082c0-0.597-0.485-1.081-1.082-1.081zM15.993 11.53c-2.556 0-4.629 2.073-4.629 4.629s2.073 4.628 4.629 4.628c2.556 0 4.628-2.072 4.628-4.628s-2.072-4.629-4.628-4.629zM15.993 13.155c1.659 0 3.005 1.345 3.005 3.005s-1.345 3.005-3.005 3.005c-1.66 0-3.005-1.345-3.005-3.005s1.345-3.005 3.005-3.005z"></path>
</symbol>
</defs>
</svg>
