<svg aria-hidden="true" style="position: absolute; width: 0; height: 0; overflow: hidden;" version="1.1" xmlns="http://www.w3.org/2000/svg" xmlns:xlink="http://www.w3.org/1999/xlink">
<defs>
<symbol id="icon-Subtract3" viewBox="0 0 32 32">
<path fill="#fff" style="fill: var(--color1, #fff)" d="M31.767 16.159c0 8.712-7.062 15.774-15.774 15.774s-15.774-7.062-15.774-15.774c0-8.712 7.062-15.774 15.774-15.774s15.774 7.062 15.774 15.774zM12.277 7.2c0.961-0.044 1.269-0.054 3.717-0.054h-0.003c2.449 0 2.755 0.011 3.716 0.054 0.96 0.044 1.615 0.196 2.19 0.419 0.593 0.23 1.095 0.538 1.596 1.039s0.809 1.004 1.040 1.597c0.222 0.573 0.374 1.228 0.419 2.188 0.043 0.961 0.055 1.269 0.055 3.717s-0.011 2.755-0.055 3.716c-0.045 0.959-0.197 1.614-0.419 2.188-0.231 0.593-0.539 1.096-1.040 1.597s-1.003 0.81-1.596 1.040c-0.573 0.223-1.229 0.375-2.189 0.419-0.962 0.044-1.268 0.055-3.716 0.055s-2.755-0.011-3.716-0.055c-0.959-0.044-1.615-0.196-2.188-0.419-0.592-0.23-1.095-0.539-1.596-1.040s-0.809-1.004-1.040-1.597c-0.223-0.573-0.375-1.228-0.419-2.188-0.044-0.961-0.054-1.268-0.054-3.716s0.011-2.755 0.054-3.717c0.043-0.959 0.195-1.614 0.419-2.188 0.231-0.593 0.539-1.096 1.040-1.597s1.004-0.809 1.597-1.039c0.573-0.223 1.228-0.375 2.188-0.419zM15.693 8.77h-0.002c-0.182-0-0.35-0-0.507 0v-0.002c-1.68 0.002-2.002 0.013-2.834 0.051-0.879 0.040-1.356 0.187-1.674 0.311-0.421 0.164-0.721 0.359-1.037 0.675s-0.511 0.616-0.675 1.037c-0.123 0.318-0.27 0.795-0.31 1.674-0.043 0.95-0.052 1.234-0.052 3.641s0.009 2.693 0.052 3.643c0.040 0.879 0.187 1.356 0.31 1.673 0.164 0.421 0.359 0.721 0.675 1.036s0.616 0.511 1.037 0.674c0.318 0.123 0.795 0.27 1.674 0.311 0.95 0.043 1.235 0.053 3.642 0.053s2.692-0.009 3.642-0.053c0.879-0.040 1.356-0.187 1.674-0.311 0.421-0.163 0.72-0.359 1.036-0.674s0.511-0.615 0.675-1.035c0.123-0.317 0.27-0.794 0.31-1.673 0.043-0.95 0.053-1.236 0.053-3.641s-0.009-2.691-0.053-3.641c-0.040-0.879-0.187-1.356-0.31-1.673-0.164-0.421-0.359-0.721-0.675-1.037s-0.615-0.511-1.036-0.674c-0.318-0.123-0.795-0.27-1.674-0.31-0.95-0.043-1.236-0.052-3.642-0.052l-0.3-0zM20.805 10.266c-0.597 0-1.082 0.484-1.082 1.081s0.484 1.082 1.082 1.082 1.082-0.485 1.082-1.082c0-0.597-0.485-1.081-1.082-1.081zM15.993 11.53c-2.556 0-4.629 2.073-4.629 4.629s2.073 4.628 4.629 4.628c2.556 0 4.628-2.072 4.628-4.628s-2.072-4.629-4.628-4.629zM15.993 13.155c1.659 0 3.005 1.345 3.005 3.005s-1.345 3.005-3.005 3.005c-1.66 0-3.005-1.345-3.005-3.005s1.345-3.005 3.005-3.005z"></path>
</symbol>
</defs>
</svg>
