<svg aria-hidden="true" style="position: absolute; width: 0; height: 0; overflow: hidden;" version="1.1" xmlns="http://www.w3.org/2000/svg" xmlns:xlink="http://www.w3.org/1999/xlink">
<defs>
<symbol id="icon-Instagram" viewBox="0 0 32 32">
<path fill="#fff" style="fill: var(--color1, #fff)" d="M31.767 16.159c0 8.712-7.062 15.774-15.774 15.774s-15.774-7.062-15.774-15.774c0-8.712 7.062-15.774 15.774-15.774s15.774 7.062 15.774 15.774zM12.277 7.2c0.961-0.044 1.269-0.054 3.717-0.054h-0.003c2.449 0 2.755 0.011 3.716 0.054 0.96 0.044 1.615 0.196 2.19 0.419 0.593 0.23 1.095 0.538 1.596 1.039s0.809 1.004 1.040 1.597c0.222 0.573 0.374 1.228 0.419 2.188 0.043 0.961 0.055 1.269 0.055 3.717s-0.011 2.755-0.055 3.716c-0.045 0.959-0.197 1.614-0.419 2.188-0.231 0.593-0.539 1.096-1.040 1.597s-1.003 0.81-1.596 1.040c-0.573 0.223-1.229 0.375-2.189 0.419-0.962 0.044-1.268 0.055-3.716 0.055s-2.755-0.011-3.716-0.055c-0.959-0.044-1.615-0.196-2.188-0.419-0.592-0.23-1.095-0.539-1.596-1.040s-0.809-1.004-1.040-1.597c-0.223-0.573-0.375-1.228-0.419-2.188-0.044-0.961-0.054-1.268-0.054-3.716s0.011-2.755 0.054-3.717c0.043-0.959 0.195-1.614 0.419-2.188 0.231-0.593 0.539-1.096 1.040-1.597s1.004-0.809 1.597-1.039c0.573-0.223 1.228-0.375 2.188-0.419zM15.693 8.77h-0.002c-0.182-0-0.35-0-0.507 0v-0.002c-1.68 0.002-2.002 0.013-2.834 0.051-0.879 0.040-1.356 0.187-1.674 0.311-0.421 0.164-0.721 0.359-1.037 0.675s-0.511 0.616-0.675 1.037c-0.123 0.318-0.27 0.795-0.31 1.674-0.043 0.95-0.052 1.234-0.052 3.641s0.009 2.693 0.052 3.643c0.040 0.879 0.187 1.356 0.31 1.673 0.164 0.421 0.359 0.721 0.675 1.036s0.616 0.511 1.037 0.674c0.318 0.123 0.795 0.27 1.674 0.311 0.95 0.043 1.235 0.053 3.642 0.053s2.692-0.009 3.642-0.053c0.879-0.040 1.356-0.187 1.674-0.311 0.421-0.163 0.72-0.359 1.036-0.674s0.511-0.615 0.675-1.035c0.123-0.317 0.27-0.794 0.31-1.673 0.043-0.95 0.053-1.236 0.053-3.641s-0.009-2.691-0.053-3.641c-0.040-0.879-0.187-1.356-0.31-1.673-0.164-0.421-0.359-0.721-0.675-1.037s-0.615-0.511-1.036-0.674c-0.318-0.123-0.795-0.27-1.674-0.31-0.95-0.043-1.236-0.052-3.642-0.052l-0.3-0zM20.805 10.266c-0.597 0-1.082 0.484-1.082 1.081s0.484 1.082 1.082 1.082 1.082-0.485 1.082-1.082c0-0.597-0.485-1.081-1.082-1.081zM15.993 11.53c-2.556 0-4.629 2.073-4.629 4.629s2.073 4.628 4.629 4.628c2.556 0 4.628-2.072 4.628-4.628s-2.072-4.629-4.628-4.629zM15.993 13.155c1.659 0 3.005 1.345 3.005 3.005s-1.345 3.005-3.005 3.005c-1.66 0-3.005-1.345-3.005-3.005s1.345-3.005 3.005-3.005z"></path>
</symbol>
<symbol id="icon-Subtract" viewBox="0 0 33 32">
<path fill="#fff" style="fill: var(--color1, #fff)" d="M32.218 16.159c0-8.712-7.062-15.774-15.774-15.774s-15.774 7.062-15.774 15.774c0 8.712 7.062 15.774 15.774 15.774s15.774-7.062 15.774-15.774zM25.458 16.147c0 0.61-0.062 1.218-0.184 1.812-0.119 0.579-0.295 1.148-0.526 1.692-0.225 0.534-0.505 1.049-0.831 1.529-0.322 0.477-0.692 0.924-1.099 1.332-0.408 0.406-0.857 0.776-1.334 1.099-0.482 0.324-0.997 0.603-1.531 0.83-0.544 0.229-1.114 0.405-1.693 0.524-0.594 0.122-1.205 0.185-1.816 0.185s-1.222-0.062-1.815-0.185c-0.58-0.119-1.15-0.294-1.694-0.524-0.534-0.226-1.050-0.506-1.532-0.83-0.477-0.323-0.926-0.693-1.333-1.099-0.408-0.408-0.778-0.855-1.1-1.332-0.325-0.48-0.605-0.995-0.831-1.529-0.231-0.544-0.407-1.112-0.526-1.692-0.121-0.593-0.182-1.202-0.182-1.812s0.062-1.22 0.182-1.812c0.119-0.579 0.296-1.149 0.526-1.692 0.226-0.534 0.506-1.050 0.831-1.53 0.322-0.477 0.693-0.924 1.1-1.332 0.407-0.406 0.856-0.775 1.333-1.097 0.482-0.326 0.997-0.605 1.532-0.832 0.544-0.23 1.114-0.406 1.694-0.524 0.593-0.121 1.204-0.183 1.815-0.183s1.221 0.062 1.816 0.183c0.579 0.118 1.149 0.294 1.693 0.524 0.534 0.227 1.050 0.506 1.531 0.832 0.477 0.323 0.926 0.691 1.334 1.097 0.407 0.408 0.778 0.855 1.099 1.332 0.327 0.48 0.606 0.995 0.831 1.53 0.231 0.543 0.407 1.112 0.526 1.692 0.122 0.592 0.184 1.202 0.184 1.812zM16.444 8.46c-0.625 0-1.232 0.076-1.814 0.215l0.013 0.017c0.182 0.244 1.585 2.12 2.865 4.467 2.881-1.078 3.983-2.727 4.019-2.781l0.001-0.001c-1.355-1.193-3.135-1.917-5.084-1.917zM18.612 15.42c0.057 0.135 0.112 0.266 0.166 0.398 2.594-0.326 5.15 0.206 5.352 0.248l0.009 0.002c-0.018-1.822-0.67-3.495-1.75-4.804l-0 0.001c-0.030 0.043-1.268 1.809-4.288 3.041 0.179 0.367 0.352 0.74 0.511 1.115zM20.746 22.521c-0.078-0.463-0.489-2.72-1.498-5.49 2.485-0.398 4.638 0.283 4.797 0.334-0.342 2.142-1.57 3.992-3.298 5.156zM17.805 17.387c1.083 2.811 1.53 5.165 1.644 5.837-0.924 0.392-1.939 0.609-3.005 0.609-1.785 0-3.424-0.612-4.731-1.627 0.016-0.035 1.499-3.221 6.041-4.802 0.011-0.004 0.021-0.007 0.032-0.011l0.008-0.003 0.010-0.003zM8.753 15.901c-0.001 0.026-0.002 0.051-0.002 0.076v0c-0.002 0.056-0.004 0.112-0.004 0.169 0 1.975 0.746 3.775 1.972 5.136-0.003-0.004 2.104-3.736 6.258-5.077 0.1-0.033 0.203-0.063 0.304-0.092-0.193-0.437-0.404-0.875-0.625-1.306-3.964 1.185-7.767 1.1-7.903 1.094zM8.911 14.562l0.007 0c0.263 0.002 3.442 0.032 7.099-0.938-1.332-2.364-2.756-4.293-2.858-4.429-2.147 1.012-3.749 2.987-4.248 5.368z"></path>
</symbol>
<symbol id="icon-subtract1" viewBox="0 0 32 32">
<path fill="#fff" style="fill: var(--color1, #fff)" d="M31.781 16.159c0 8.712-7.062 15.774-15.774 15.774s-15.774-7.062-15.774-15.774c0-8.712 7.062-15.774 15.774-15.774s15.774 7.062 15.774 15.774zM16.339 13.374c0-0.651-0.171-1.21-0.511-1.677-0.567-0.761-1.528-1.151-2.887-1.171h-5.383v10.99h5.020c0.566 0 1.090-0.048 1.574-0.147 0.484-0.1 0.903-0.283 1.258-0.552 0.316-0.234 0.579-0.523 0.789-0.865 0.332-0.517 0.497-1.101 0.497-1.753 0-0.632-0.145-1.169-0.433-1.61-0.291-0.442-0.72-0.765-1.288-0.97 0.374-0.188 0.657-0.397 0.85-0.625 0.345-0.408 0.515-0.948 0.515-1.619zM9.777 14.859v-2.425h2.425c0.533 0 0.972 0.057 1.317 0.171 0.399 0.165 0.598 0.503 0.598 1.016 0 0.46-0.152 0.782-0.453 0.964-0.303 0.182-0.696 0.273-1.179 0.273h-2.709zM9.777 16.677v2.931h2.705c0.483 0 0.861-0.065 1.129-0.193 0.489-0.241 0.732-0.696 0.732-1.372 0-0.573-0.235-0.965-0.709-1.179-0.265-0.119-0.637-0.182-1.114-0.186h-2.743zM19.076 12.406h4.774v-1.368h-4.774v1.368zM24.852 14.756c-0.373-0.548-0.847-0.949-1.422-1.203-0.575-0.254-1.22-0.382-1.938-0.382-1.207 0-2.188 0.377-2.946 1.127-0.756 0.752-1.134 1.832-1.134 3.241 0 1.502 0.418 2.587 1.258 3.253 0.836 0.667 1.804 1 2.901 1 1.328 0 2.362-0.395 3.099-1.185 0.473-0.498 0.74-0.988 0.798-1.469h-2.199c-0.127 0.238-0.276 0.425-0.444 0.559-0.306 0.248-0.706 0.372-1.195 0.372-0.464 0-0.86-0.102-1.188-0.306-0.543-0.327-0.827-0.899-0.863-1.714h6.003c0.009-0.702-0.014-1.241-0.072-1.613-0.1-0.637-0.318-1.197-0.658-1.68zM19.633 16.648c0.078-0.529 0.27-0.948 0.575-1.258s0.735-0.464 1.286-0.464c0.509 0 0.934 0.145 1.279 0.437 0.341 0.294 0.534 0.721 0.573 1.285h-3.713z"></path>
</symbol>
</defs>
</svg>
