<svg width="36" height="36" viewBox="0 0 36 36" fill="none" xmlns="http://www.w3.org/2000/svg">
<g clip-path="url(#clip0_1_2547)">
<path fill-rule="evenodd" clip-rule="evenodd" d="M35.7376 18.179C35.7376 27.9797 27.7925 35.9248 17.9917 35.9248C8.19094 35.9248 0.24585 27.9797 0.24585 18.179C0.24585 8.3782 8.19094 0.433105 17.9917 0.433105C27.7925 0.433105 35.7376 8.3782 35.7376 18.179ZM13.8114 8.09974C14.893 8.05052 15.2387 8.03847 17.9927 8.03847H17.9895C20.7444 8.03847 21.0887 8.05052 22.1704 8.09974C23.2499 8.14917 23.9872 8.32009 24.6337 8.57085C25.3013 8.82965 25.8654 9.17612 26.4294 9.74019C26.9935 10.3038 27.34 10.8696 27.5998 11.5366C27.8491 12.1813 28.0202 12.9182 28.0709 13.9978C28.1195 15.0794 28.1322 15.4251 28.1322 18.1791C28.1322 20.9331 28.1195 21.2779 28.0709 22.3595C28.0202 23.4387 27.8491 24.1758 27.5998 24.8207C27.34 25.4875 26.9935 26.0532 26.4294 26.6169C25.866 27.181 25.3011 27.5283 24.6343 27.7873C23.9891 28.0381 23.2514 28.209 22.1719 28.2584C21.0902 28.3076 20.7456 28.3197 17.9914 28.3197C15.2376 28.3197 14.8922 28.3076 13.8105 28.2584C12.7312 28.209 11.9941 28.0381 11.3489 27.7873C10.6824 27.5283 10.1166 27.181 9.55316 26.6169C8.9893 26.0532 8.64283 25.4875 8.38361 24.8205C8.13305 24.1758 7.96214 23.4389 7.9125 22.3593C7.86348 21.2777 7.85123 20.9331 7.85123 18.1791C7.85123 15.4251 7.86391 15.0792 7.91228 13.9976C7.96088 12.9184 8.132 12.1813 8.3834 11.5363C8.64325 10.8696 8.98972 10.3038 9.55379 9.74019C10.1174 9.17633 10.6832 8.82986 11.3502 8.57085C11.9949 8.32009 12.7318 8.14917 13.8114 8.09974ZM17.6547 9.86579H17.653H17.6529H17.6529H17.6529C17.4485 9.8657 17.2591 9.86562 17.083 9.86589V9.86336C15.193 9.86547 14.8305 9.87815 13.895 9.9204C12.9063 9.96582 12.3695 10.1306 12.012 10.27C11.5388 10.4543 11.2008 10.674 10.8459 11.0289C10.491 11.3838 10.2708 11.7218 10.087 12.1951C9.94822 12.5525 9.78301 13.0891 9.7378 14.0778C9.68921 15.1468 9.67949 15.4662 9.67949 18.1742C9.67949 20.8822 9.68921 21.2033 9.7378 22.2723C9.7828 23.261 9.94822 23.7976 10.087 24.1546C10.2712 24.6281 10.491 24.9652 10.8459 25.3202C11.2008 25.6751 11.5388 25.8948 12.012 26.0786C12.3697 26.2174 12.9063 26.3826 13.895 26.4282C14.964 26.4768 15.2849 26.4874 17.9927 26.4874C20.7002 26.4874 21.0213 26.4768 22.0903 26.4282C23.079 26.383 23.6161 26.2182 23.9731 26.0788C24.4465 25.895 24.7835 25.6753 25.1384 25.3204C25.4933 24.9657 25.7135 24.6287 25.8973 24.1555C26.0361 23.7984 26.2013 23.2618 26.2465 22.2731C26.2951 21.2041 26.3056 20.883 26.3056 18.1767C26.3056 15.4705 26.2951 15.1494 26.2465 14.0804C26.2015 13.0917 26.0361 12.5551 25.8973 12.198C25.713 11.7248 25.4933 11.3868 25.1384 11.0319C24.7837 10.6769 24.4463 10.4572 23.9731 10.2734C23.6156 10.1346 23.079 9.96941 22.0903 9.9242C21.0211 9.87561 20.7002 9.86589 17.9927 9.86589L17.6547 9.86579ZM23.4056 11.5497C22.7338 11.5497 22.1888 12.0941 22.1888 12.7661C22.1888 13.4379 22.7338 13.983 23.4056 13.983C24.0774 13.983 24.6225 13.4379 24.6225 12.7661C24.6225 12.0943 24.0774 11.5497 23.4056 11.5497ZM17.9927 12.9715C15.1168 12.9715 12.785 15.3032 12.785 18.1791C12.785 21.055 15.1168 23.3856 17.9927 23.3856C20.8686 23.3856 23.1994 21.055 23.1994 18.1791C23.1994 15.3032 20.8686 12.9715 17.9927 12.9715ZM17.9927 14.7989C19.8594 14.7989 21.3729 16.3121 21.3729 18.1791C21.3729 20.0458 19.8594 21.5593 17.9927 21.5593C16.1257 21.5593 14.6125 20.0458 14.6125 18.1791C14.6125 16.3121 16.1257 14.7989 17.9927 14.7989Z" fill="white"/>
</g>
<defs>
<clipPath id="clip0_1_2547">
<rect width="35.4917" height="35.4917" fill="white" transform="translate(0.24585 0.433105)"/>
</clipPath>
</defs>
</svg>
