<svg aria-hidden="true" style="position: absolute; width: 0; height: 0; overflow: hidden;" version="1.1" xmlns="http://www.w3.org/2000/svg" xmlns:xlink="http://www.w3.org/1999/xlink">
<defs>
<symbol id="icon-flesh" viewBox="0 0 20 32">
<path d="M19.185 13.185l-10.667 17.402c-0.209 0.338-0.578 0.545-0.975 0.549h-0.305c-0.213-0-0.417-0.089-0.564-0.244s-0.218-0.367-0.198-0.579l0.853-9.844h-5.44c-0.409-0.004-0.786-0.225-0.99-0.579l-0.29-0.503c-0.145-0.239-0.145-0.538 0-0.777l10.667-17.402c0.215-0.347 0.597-0.556 1.006-0.549h0.305c0.213 0 0.417 0.089 0.564 0.244s0.218 0.367 0.198 0.579l-0.869 9.844h5.44c0.409 0.004 0.786 0.225 0.99 0.579l0.29 0.503c0.141 0.241 0.135 0.541-0.015 0.777z"></path>
</symbol>
</defs>
</svg>
